<mxfile host="app.diagrams.net" modified="2022-03-14T21:39:19.410Z" agent="5.0 (Windows)" etag="F8gqgQt0kEIO8jAtJw21" version="17.1.2" type="github">
  <diagram id="AxkOQcfwC_eE_syWc4v8" name="Page-1">
    <mxGraphModel dx="1422" dy="752" grid="1" gridSize="10" guides="1" tooltips="1" connect="1" arrows="1" fold="1" page="1" pageScale="1" pageWidth="827" pageHeight="1169" math="0" shadow="0">
      <root>
        <mxCell id="0" />
        <mxCell id="1" parent="0" />
        <mxCell id="vNdeVi5ogd6aJ1DIu0Zj-1" value="&lt;&lt;component&gt;&gt;&#xa;AuthenticationPresentation" style="shape=module;align=left;spacingLeft=20;align=center;verticalAlign=top;" parent="1" vertex="1">
          <mxGeometry x="30" y="40" width="730" height="430" as="geometry" />
        </mxCell>
        <mxCell id="vNdeVi5ogd6aJ1DIu0Zj-2" value="&lt;&lt;component&gt;&gt;&#xa;AuthenticationController" style="shape=module;align=left;spacingLeft=20;align=center;verticalAlign=top;" parent="1" vertex="1">
          <mxGeometry x="70" y="90" width="280" height="360" as="geometry" />
        </mxCell>
        <mxCell id="vNdeVi5ogd6aJ1DIu0Zj-3" value="&lt;&lt;component&gt;&gt;&#xa;AuthenticationViews" style="shape=module;align=left;spacingLeft=20;align=center;verticalAlign=top;" parent="1" vertex="1">
          <mxGeometry x="450" y="90" width="270" height="360" as="geometry" />
        </mxCell>
        <mxCell id="vNdeVi5ogd6aJ1DIu0Zj-4" value="&amp;lt;&amp;lt;view&amp;gt;&amp;gt;&lt;br&gt;&amp;lt;&amp;lt;html&amp;gt;&amp;gt;&lt;br&gt;Login" style="html=1;" parent="1" vertex="1">
          <mxGeometry x="530" y="150" width="110" height="50" as="geometry" />
        </mxCell>
        <mxCell id="vNdeVi5ogd6aJ1DIu0Zj-5" value="&amp;lt;&amp;lt;view&amp;gt;&amp;gt;&lt;br&gt;&amp;lt;&amp;lt;html&amp;gt;&amp;gt;&lt;br&gt;Registro" style="html=1;" parent="1" vertex="1">
          <mxGeometry x="530" y="230" width="110" height="50" as="geometry" />
        </mxCell>
        <mxCell id="vNdeVi5ogd6aJ1DIu0Zj-6" value="&amp;lt;&amp;lt;ModelAndView&amp;gt;&amp;gt;&lt;br&gt;Login" style="html=1;" parent="1" vertex="1">
          <mxGeometry x="155" y="150" width="110" height="50" as="geometry" />
        </mxCell>
        <mxCell id="vNdeVi5ogd6aJ1DIu0Zj-7" value="&amp;lt;&amp;lt;ModelAndView&amp;gt;&amp;gt;&lt;br&gt;Portada" style="html=1;" parent="1" vertex="1">
          <mxGeometry x="155" y="220" width="110" height="50" as="geometry" />
        </mxCell>
        <mxCell id="vNdeVi5ogd6aJ1DIu0Zj-8" value="&amp;lt;&amp;lt;ModelAndView&amp;gt;&amp;gt;&lt;br&gt;Registro" style="html=1;" parent="1" vertex="1">
          <mxGeometry x="155" y="290" width="110" height="50" as="geometry" />
        </mxCell>
        <mxCell id="vNdeVi5ogd6aJ1DIu0Zj-10" value="" style="endArrow=classic;html=1;rounded=0;exitX=1;exitY=0.5;exitDx=0;exitDy=0;entryX=0;entryY=0.5;entryDx=0;entryDy=0;dashed=1;" parent="1" source="vNdeVi5ogd6aJ1DIu0Zj-6" target="vNdeVi5ogd6aJ1DIu0Zj-4" edge="1">
          <mxGeometry width="50" height="50" relative="1" as="geometry">
            <mxPoint x="390" y="290" as="sourcePoint" />
            <mxPoint x="440" y="240" as="targetPoint" />
          </mxGeometry>
        </mxCell>
        <mxCell id="vNdeVi5ogd6aJ1DIu0Zj-11" value="&amp;lt;&amp;lt;use&amp;gt;&amp;gt;" style="edgeLabel;html=1;align=center;verticalAlign=middle;resizable=0;points=[];" parent="vNdeVi5ogd6aJ1DIu0Zj-10" vertex="1" connectable="0">
          <mxGeometry x="0.1623" y="-1" relative="1" as="geometry">
            <mxPoint x="-19" y="-16" as="offset" />
          </mxGeometry>
        </mxCell>
        <mxCell id="vNdeVi5ogd6aJ1DIu0Zj-14" value="" style="endArrow=classic;html=1;rounded=0;exitX=1;exitY=0.5;exitDx=0;exitDy=0;entryX=0;entryY=0.5;entryDx=0;entryDy=0;dashed=1;" parent="1" source="vNdeVi5ogd6aJ1DIu0Zj-7" target="vNdeVi5ogd6aJ1DIu0Zj-4" edge="1">
          <mxGeometry width="50" height="50" relative="1" as="geometry">
            <mxPoint x="275" y="185" as="sourcePoint" />
            <mxPoint x="540" y="185" as="targetPoint" />
          </mxGeometry>
        </mxCell>
        <mxCell id="vNdeVi5ogd6aJ1DIu0Zj-15" value="&amp;lt;&amp;lt;use&amp;gt;&amp;gt;" style="edgeLabel;html=1;align=center;verticalAlign=middle;resizable=0;points=[];" parent="vNdeVi5ogd6aJ1DIu0Zj-14" vertex="1" connectable="0">
          <mxGeometry x="0.1623" y="-1" relative="1" as="geometry">
            <mxPoint x="-19" y="-15" as="offset" />
          </mxGeometry>
        </mxCell>
        <mxCell id="vNdeVi5ogd6aJ1DIu0Zj-16" value="" style="endArrow=classic;html=1;rounded=0;exitX=1;exitY=0.5;exitDx=0;exitDy=0;entryX=0;entryY=0.5;entryDx=0;entryDy=0;dashed=1;" parent="1" source="vNdeVi5ogd6aJ1DIu0Zj-8" target="vNdeVi5ogd6aJ1DIu0Zj-5" edge="1">
          <mxGeometry width="50" height="50" relative="1" as="geometry">
            <mxPoint x="275" y="185" as="sourcePoint" />
            <mxPoint x="540" y="185" as="targetPoint" />
          </mxGeometry>
        </mxCell>
        <mxCell id="vNdeVi5ogd6aJ1DIu0Zj-17" value="&amp;lt;&amp;lt;use&amp;gt;&amp;gt;" style="edgeLabel;html=1;align=center;verticalAlign=middle;resizable=0;points=[];" parent="vNdeVi5ogd6aJ1DIu0Zj-16" vertex="1" connectable="0">
          <mxGeometry x="0.1623" y="-1" relative="1" as="geometry">
            <mxPoint x="-19" y="-16" as="offset" />
          </mxGeometry>
        </mxCell>
        <mxCell id="QQFFvae5NlyF0eOOkwyp-1" value="&lt;&lt;component&gt;&gt;&#xa;AdministrationPresentation" style="shape=module;align=left;spacingLeft=20;align=center;verticalAlign=top;" vertex="1" parent="1">
          <mxGeometry x="30" y="520" width="730" height="680" as="geometry" />
        </mxCell>
        <mxCell id="QQFFvae5NlyF0eOOkwyp-2" value="&lt;&lt;component&gt;&gt;&#xa;AdministrationController" style="shape=module;align=left;spacingLeft=20;align=center;verticalAlign=top;" vertex="1" parent="1">
          <mxGeometry x="50" y="570" width="300" height="580" as="geometry" />
        </mxCell>
        <mxCell id="QQFFvae5NlyF0eOOkwyp-3" value="&lt;&lt;component&gt;&gt;&#xa;AuthenticationViews" style="shape=module;align=left;spacingLeft=20;align=center;verticalAlign=top;" vertex="1" parent="1">
          <mxGeometry x="450" y="570" width="270" height="580" as="geometry" />
        </mxCell>
        <mxCell id="QQFFvae5NlyF0eOOkwyp-4" value="&amp;lt;&amp;lt;view&amp;gt;&amp;gt;&lt;br&gt;&amp;lt;&amp;lt;html&amp;gt;&amp;gt;&lt;br&gt;ListadoGrupos" style="html=1;" vertex="1" parent="1">
          <mxGeometry x="530" y="620" width="110" height="50" as="geometry" />
        </mxCell>
        <mxCell id="QQFFvae5NlyF0eOOkwyp-5" value="&amp;lt;&amp;lt;view&amp;gt;&amp;gt;&lt;br&gt;&lt;div&gt;&amp;lt;&amp;lt;html&amp;gt;&amp;gt;&lt;/div&gt;&lt;div&gt;modificarGrupo&lt;br&gt;&lt;/div&gt;" style="html=1;" vertex="1" parent="1">
          <mxGeometry x="530" y="700" width="110" height="50" as="geometry" />
        </mxCell>
        <mxCell id="QQFFvae5NlyF0eOOkwyp-6" value="&lt;div&gt;&amp;lt;&amp;lt;ModelAndView&amp;gt;&amp;gt;&lt;/div&gt;&lt;div&gt;ListadoGrupos&lt;br&gt;&lt;/div&gt;" style="html=1;" vertex="1" parent="1">
          <mxGeometry x="90" y="620" width="110" height="50" as="geometry" />
        </mxCell>
        <mxCell id="QQFFvae5NlyF0eOOkwyp-7" value="&amp;lt;&amp;lt;ModelAndView&amp;gt;&amp;gt;&lt;br&gt;ModificarGrupo" style="html=1;" vertex="1" parent="1">
          <mxGeometry x="90" y="700" width="110" height="50" as="geometry" />
        </mxCell>
        <mxCell id="QQFFvae5NlyF0eOOkwyp-8" value="&amp;lt;&amp;lt;ModelAndView&amp;gt;&amp;gt;&lt;br&gt;EliminarGrupo" style="html=1;" vertex="1" parent="1">
          <mxGeometry x="220" y="650" width="110" height="50" as="geometry" />
        </mxCell>
        <mxCell id="QQFFvae5NlyF0eOOkwyp-9" value="" style="endArrow=classic;html=1;rounded=0;exitX=1;exitY=0.5;exitDx=0;exitDy=0;entryX=0;entryY=0.5;entryDx=0;entryDy=0;dashed=1;" edge="1" parent="1" source="QQFFvae5NlyF0eOOkwyp-6" target="QQFFvae5NlyF0eOOkwyp-4">
          <mxGeometry width="50" height="50" relative="1" as="geometry">
            <mxPoint x="390" y="770" as="sourcePoint" />
            <mxPoint x="440" y="720" as="targetPoint" />
          </mxGeometry>
        </mxCell>
        <mxCell id="QQFFvae5NlyF0eOOkwyp-10" value="&amp;lt;&amp;lt;use&amp;gt;&amp;gt;" style="edgeLabel;html=1;align=center;verticalAlign=middle;resizable=0;points=[];" vertex="1" connectable="0" parent="QQFFvae5NlyF0eOOkwyp-9">
          <mxGeometry x="0.1623" y="-1" relative="1" as="geometry">
            <mxPoint x="-19" y="-16" as="offset" />
          </mxGeometry>
        </mxCell>
        <mxCell id="QQFFvae5NlyF0eOOkwyp-11" value="" style="endArrow=classic;html=1;rounded=0;exitX=1;exitY=0.5;exitDx=0;exitDy=0;entryX=0;entryY=0.5;entryDx=0;entryDy=0;dashed=1;" edge="1" parent="1" source="QQFFvae5NlyF0eOOkwyp-7" target="QQFFvae5NlyF0eOOkwyp-5">
          <mxGeometry width="50" height="50" relative="1" as="geometry">
            <mxPoint x="275" y="665" as="sourcePoint" />
            <mxPoint x="540" y="665" as="targetPoint" />
          </mxGeometry>
        </mxCell>
        <mxCell id="QQFFvae5NlyF0eOOkwyp-12" value="&amp;lt;&amp;lt;use&amp;gt;&amp;gt;" style="edgeLabel;html=1;align=center;verticalAlign=middle;resizable=0;points=[];" vertex="1" connectable="0" parent="QQFFvae5NlyF0eOOkwyp-11">
          <mxGeometry x="0.1623" y="-1" relative="1" as="geometry">
            <mxPoint x="-19" y="-15" as="offset" />
          </mxGeometry>
        </mxCell>
        <mxCell id="QQFFvae5NlyF0eOOkwyp-13" value="" style="endArrow=classic;html=1;rounded=0;exitX=1;exitY=0.5;exitDx=0;exitDy=0;entryX=0;entryY=0.5;entryDx=0;entryDy=0;dashed=1;" edge="1" parent="1" source="QQFFvae5NlyF0eOOkwyp-15" target="QQFFvae5NlyF0eOOkwyp-5">
          <mxGeometry width="50" height="50" relative="1" as="geometry">
            <mxPoint x="275" y="665" as="sourcePoint" />
            <mxPoint x="540" y="665" as="targetPoint" />
          </mxGeometry>
        </mxCell>
        <mxCell id="QQFFvae5NlyF0eOOkwyp-14" value="&amp;lt;&amp;lt;use&amp;gt;&amp;gt;" style="edgeLabel;html=1;align=center;verticalAlign=middle;resizable=0;points=[];" vertex="1" connectable="0" parent="QQFFvae5NlyF0eOOkwyp-13">
          <mxGeometry x="0.1623" y="-1" relative="1" as="geometry">
            <mxPoint x="-19" y="12" as="offset" />
          </mxGeometry>
        </mxCell>
        <mxCell id="QQFFvae5NlyF0eOOkwyp-15" value="&amp;lt;&amp;lt;ModelAndView&amp;gt;&amp;gt;&lt;br&gt;CrearGrupo" style="html=1;" vertex="1" parent="1">
          <mxGeometry x="220" y="730" width="110" height="50" as="geometry" />
        </mxCell>
        <mxCell id="QQFFvae5NlyF0eOOkwyp-16" value="" style="endArrow=classic;html=1;rounded=0;exitX=1;exitY=0.5;exitDx=0;exitDy=0;entryX=0;entryY=0.5;entryDx=0;entryDy=0;dashed=1;" edge="1" parent="1" source="QQFFvae5NlyF0eOOkwyp-8" target="QQFFvae5NlyF0eOOkwyp-4">
          <mxGeometry width="50" height="50" relative="1" as="geometry">
            <mxPoint x="275" y="665" as="sourcePoint" />
            <mxPoint x="540" y="665" as="targetPoint" />
          </mxGeometry>
        </mxCell>
        <mxCell id="QQFFvae5NlyF0eOOkwyp-17" value="&amp;lt;&amp;lt;use&amp;gt;&amp;gt;" style="edgeLabel;html=1;align=center;verticalAlign=middle;resizable=0;points=[];" vertex="1" connectable="0" parent="QQFFvae5NlyF0eOOkwyp-16">
          <mxGeometry x="0.1623" y="-1" relative="1" as="geometry">
            <mxPoint x="-19" y="12" as="offset" />
          </mxGeometry>
        </mxCell>
        <mxCell id="QQFFvae5NlyF0eOOkwyp-18" value="&amp;lt;&amp;lt;view&amp;gt;&amp;gt;&lt;br&gt;&amp;lt;&amp;lt;html&amp;gt;&amp;gt;&lt;br&gt;ListadoEspecialidades" style="html=1;" vertex="1" parent="1">
          <mxGeometry x="515" y="800" width="140" height="50" as="geometry" />
        </mxCell>
        <mxCell id="QQFFvae5NlyF0eOOkwyp-19" value="&amp;lt;&amp;lt;view&amp;gt;&amp;gt;&lt;br&gt;&lt;div&gt;&amp;lt;&amp;lt;html&amp;gt;&amp;gt;&lt;/div&gt;&lt;div&gt;modificarEspecialidades&lt;/div&gt;" style="html=1;" vertex="1" parent="1">
          <mxGeometry x="515" y="880" width="140" height="50" as="geometry" />
        </mxCell>
        <mxCell id="QQFFvae5NlyF0eOOkwyp-20" value="&lt;div&gt;&amp;lt;&amp;lt;ModelAndView&amp;gt;&amp;gt;&lt;/div&gt;&lt;div&gt;ListadoEspecialidades&lt;br&gt;&lt;/div&gt;" style="html=1;" vertex="1" parent="1">
          <mxGeometry x="70" y="800" width="130" height="50" as="geometry" />
        </mxCell>
        <mxCell id="QQFFvae5NlyF0eOOkwyp-21" value="&amp;lt;&amp;lt;ModelAndView&amp;gt;&amp;gt;&lt;br&gt;ModificarEspecialidad" style="html=1;" vertex="1" parent="1">
          <mxGeometry x="70" y="880" width="130" height="50" as="geometry" />
        </mxCell>
        <mxCell id="QQFFvae5NlyF0eOOkwyp-22" value="&amp;lt;&amp;lt;ModelAndView&amp;gt;&amp;gt;&lt;br&gt;EliminarEspecialidad" style="html=1;" vertex="1" parent="1">
          <mxGeometry x="210" y="830" width="130" height="50" as="geometry" />
        </mxCell>
        <mxCell id="QQFFvae5NlyF0eOOkwyp-23" value="" style="endArrow=classic;html=1;rounded=0;exitX=1;exitY=0.5;exitDx=0;exitDy=0;entryX=0;entryY=0.5;entryDx=0;entryDy=0;dashed=1;" edge="1" parent="1" source="QQFFvae5NlyF0eOOkwyp-20" target="QQFFvae5NlyF0eOOkwyp-18">
          <mxGeometry width="50" height="50" relative="1" as="geometry">
            <mxPoint x="390" y="950" as="sourcePoint" />
            <mxPoint x="440" y="900" as="targetPoint" />
          </mxGeometry>
        </mxCell>
        <mxCell id="QQFFvae5NlyF0eOOkwyp-24" value="&amp;lt;&amp;lt;use&amp;gt;&amp;gt;" style="edgeLabel;html=1;align=center;verticalAlign=middle;resizable=0;points=[];" vertex="1" connectable="0" parent="QQFFvae5NlyF0eOOkwyp-23">
          <mxGeometry x="0.1623" y="-1" relative="1" as="geometry">
            <mxPoint x="-19" y="-16" as="offset" />
          </mxGeometry>
        </mxCell>
        <mxCell id="QQFFvae5NlyF0eOOkwyp-25" value="" style="endArrow=classic;html=1;rounded=0;exitX=1;exitY=0.5;exitDx=0;exitDy=0;entryX=0;entryY=0.5;entryDx=0;entryDy=0;dashed=1;" edge="1" parent="1" source="QQFFvae5NlyF0eOOkwyp-21" target="QQFFvae5NlyF0eOOkwyp-19">
          <mxGeometry width="50" height="50" relative="1" as="geometry">
            <mxPoint x="275" y="845" as="sourcePoint" />
            <mxPoint x="540" y="845" as="targetPoint" />
          </mxGeometry>
        </mxCell>
        <mxCell id="QQFFvae5NlyF0eOOkwyp-26" value="&amp;lt;&amp;lt;use&amp;gt;&amp;gt;" style="edgeLabel;html=1;align=center;verticalAlign=middle;resizable=0;points=[];" vertex="1" connectable="0" parent="QQFFvae5NlyF0eOOkwyp-25">
          <mxGeometry x="0.1623" y="-1" relative="1" as="geometry">
            <mxPoint x="-19" y="-15" as="offset" />
          </mxGeometry>
        </mxCell>
        <mxCell id="QQFFvae5NlyF0eOOkwyp-27" value="" style="endArrow=classic;html=1;rounded=0;exitX=1;exitY=0.5;exitDx=0;exitDy=0;entryX=0;entryY=0.5;entryDx=0;entryDy=0;dashed=1;" edge="1" parent="1" source="QQFFvae5NlyF0eOOkwyp-29" target="QQFFvae5NlyF0eOOkwyp-19">
          <mxGeometry width="50" height="50" relative="1" as="geometry">
            <mxPoint x="275" y="845" as="sourcePoint" />
            <mxPoint x="540" y="845" as="targetPoint" />
          </mxGeometry>
        </mxCell>
        <mxCell id="QQFFvae5NlyF0eOOkwyp-28" value="&amp;lt;&amp;lt;use&amp;gt;&amp;gt;" style="edgeLabel;html=1;align=center;verticalAlign=middle;resizable=0;points=[];" vertex="1" connectable="0" parent="QQFFvae5NlyF0eOOkwyp-27">
          <mxGeometry x="0.1623" y="-1" relative="1" as="geometry">
            <mxPoint x="-19" y="12" as="offset" />
          </mxGeometry>
        </mxCell>
        <mxCell id="QQFFvae5NlyF0eOOkwyp-29" value="&amp;lt;&amp;lt;ModelAndView&amp;gt;&amp;gt;&lt;br&gt;CrearEspecialidad" style="html=1;" vertex="1" parent="1">
          <mxGeometry x="210" y="910" width="130" height="50" as="geometry" />
        </mxCell>
        <mxCell id="QQFFvae5NlyF0eOOkwyp-30" value="" style="endArrow=classic;html=1;rounded=0;exitX=1;exitY=0.5;exitDx=0;exitDy=0;entryX=0;entryY=0.5;entryDx=0;entryDy=0;dashed=1;" edge="1" parent="1" source="QQFFvae5NlyF0eOOkwyp-22" target="QQFFvae5NlyF0eOOkwyp-18">
          <mxGeometry width="50" height="50" relative="1" as="geometry">
            <mxPoint x="275" y="845" as="sourcePoint" />
            <mxPoint x="540" y="845" as="targetPoint" />
          </mxGeometry>
        </mxCell>
        <mxCell id="QQFFvae5NlyF0eOOkwyp-31" value="&amp;lt;&amp;lt;use&amp;gt;&amp;gt;" style="edgeLabel;html=1;align=center;verticalAlign=middle;resizable=0;points=[];" vertex="1" connectable="0" parent="QQFFvae5NlyF0eOOkwyp-30">
          <mxGeometry x="0.1623" y="-1" relative="1" as="geometry">
            <mxPoint x="-19" y="12" as="offset" />
          </mxGeometry>
        </mxCell>
        <mxCell id="QQFFvae5NlyF0eOOkwyp-32" value="&amp;lt;&amp;lt;view&amp;gt;&amp;gt;&lt;br&gt;&amp;lt;&amp;lt;html&amp;gt;&amp;gt;&lt;br&gt;ListadoOrganismos" style="html=1;" vertex="1" parent="1">
          <mxGeometry x="525" y="980" width="120" height="50" as="geometry" />
        </mxCell>
        <mxCell id="QQFFvae5NlyF0eOOkwyp-33" value="&amp;lt;&amp;lt;view&amp;gt;&amp;gt;&lt;br&gt;&lt;div&gt;&amp;lt;&amp;lt;html&amp;gt;&amp;gt;&lt;/div&gt;&lt;div&gt;modificarOrganismo&lt;/div&gt;" style="html=1;" vertex="1" parent="1">
          <mxGeometry x="525" y="1060" width="120" height="50" as="geometry" />
        </mxCell>
        <mxCell id="QQFFvae5NlyF0eOOkwyp-34" value="&lt;div&gt;&amp;lt;&amp;lt;ModelAndView&amp;gt;&amp;gt;&lt;/div&gt;&lt;div&gt;ListadoOrganismos&lt;br&gt;&lt;/div&gt;" style="html=1;" vertex="1" parent="1">
          <mxGeometry x="80" y="980" width="120" height="50" as="geometry" />
        </mxCell>
        <mxCell id="QQFFvae5NlyF0eOOkwyp-35" value="&amp;lt;&amp;lt;ModelAndView&amp;gt;&amp;gt;&lt;br&gt;ModificarOrganismo" style="html=1;" vertex="1" parent="1">
          <mxGeometry x="80" y="1060" width="120" height="50" as="geometry" />
        </mxCell>
        <mxCell id="QQFFvae5NlyF0eOOkwyp-36" value="&amp;lt;&amp;lt;ModelAndView&amp;gt;&amp;gt;&lt;br&gt;EliminarOrganismo" style="html=1;" vertex="1" parent="1">
          <mxGeometry x="215" y="1010" width="120" height="50" as="geometry" />
        </mxCell>
        <mxCell id="QQFFvae5NlyF0eOOkwyp-37" value="" style="endArrow=classic;html=1;rounded=0;exitX=1;exitY=0.5;exitDx=0;exitDy=0;entryX=0;entryY=0.5;entryDx=0;entryDy=0;dashed=1;" edge="1" parent="1" source="QQFFvae5NlyF0eOOkwyp-34" target="QQFFvae5NlyF0eOOkwyp-32">
          <mxGeometry width="50" height="50" relative="1" as="geometry">
            <mxPoint x="390" y="1130" as="sourcePoint" />
            <mxPoint x="440" y="1080" as="targetPoint" />
          </mxGeometry>
        </mxCell>
        <mxCell id="QQFFvae5NlyF0eOOkwyp-38" value="&amp;lt;&amp;lt;use&amp;gt;&amp;gt;" style="edgeLabel;html=1;align=center;verticalAlign=middle;resizable=0;points=[];" vertex="1" connectable="0" parent="QQFFvae5NlyF0eOOkwyp-37">
          <mxGeometry x="0.1623" y="-1" relative="1" as="geometry">
            <mxPoint x="-19" y="-16" as="offset" />
          </mxGeometry>
        </mxCell>
        <mxCell id="QQFFvae5NlyF0eOOkwyp-39" value="" style="endArrow=classic;html=1;rounded=0;exitX=1;exitY=0.5;exitDx=0;exitDy=0;entryX=0;entryY=0.5;entryDx=0;entryDy=0;dashed=1;" edge="1" parent="1" source="QQFFvae5NlyF0eOOkwyp-35" target="QQFFvae5NlyF0eOOkwyp-33">
          <mxGeometry width="50" height="50" relative="1" as="geometry">
            <mxPoint x="275" y="1025" as="sourcePoint" />
            <mxPoint x="540" y="1025" as="targetPoint" />
          </mxGeometry>
        </mxCell>
        <mxCell id="QQFFvae5NlyF0eOOkwyp-40" value="&amp;lt;&amp;lt;use&amp;gt;&amp;gt;" style="edgeLabel;html=1;align=center;verticalAlign=middle;resizable=0;points=[];" vertex="1" connectable="0" parent="QQFFvae5NlyF0eOOkwyp-39">
          <mxGeometry x="0.1623" y="-1" relative="1" as="geometry">
            <mxPoint x="-19" y="-15" as="offset" />
          </mxGeometry>
        </mxCell>
        <mxCell id="QQFFvae5NlyF0eOOkwyp-41" value="" style="endArrow=classic;html=1;rounded=0;exitX=1;exitY=0.5;exitDx=0;exitDy=0;entryX=0;entryY=0.5;entryDx=0;entryDy=0;dashed=1;" edge="1" parent="1" source="QQFFvae5NlyF0eOOkwyp-43" target="QQFFvae5NlyF0eOOkwyp-33">
          <mxGeometry width="50" height="50" relative="1" as="geometry">
            <mxPoint x="275" y="1025" as="sourcePoint" />
            <mxPoint x="540" y="1025" as="targetPoint" />
          </mxGeometry>
        </mxCell>
        <mxCell id="QQFFvae5NlyF0eOOkwyp-42" value="&amp;lt;&amp;lt;use&amp;gt;&amp;gt;" style="edgeLabel;html=1;align=center;verticalAlign=middle;resizable=0;points=[];" vertex="1" connectable="0" parent="QQFFvae5NlyF0eOOkwyp-41">
          <mxGeometry x="0.1623" y="-1" relative="1" as="geometry">
            <mxPoint x="-19" y="12" as="offset" />
          </mxGeometry>
        </mxCell>
        <mxCell id="QQFFvae5NlyF0eOOkwyp-43" value="&amp;lt;&amp;lt;ModelAndView&amp;gt;&amp;gt;&lt;br&gt;CrearOrganismo" style="html=1;" vertex="1" parent="1">
          <mxGeometry x="215" y="1090" width="120" height="50" as="geometry" />
        </mxCell>
        <mxCell id="QQFFvae5NlyF0eOOkwyp-44" value="" style="endArrow=classic;html=1;rounded=0;exitX=1;exitY=0.5;exitDx=0;exitDy=0;entryX=0;entryY=0.5;entryDx=0;entryDy=0;dashed=1;" edge="1" parent="1" source="QQFFvae5NlyF0eOOkwyp-36" target="QQFFvae5NlyF0eOOkwyp-32">
          <mxGeometry width="50" height="50" relative="1" as="geometry">
            <mxPoint x="275" y="1025" as="sourcePoint" />
            <mxPoint x="540" y="1025" as="targetPoint" />
          </mxGeometry>
        </mxCell>
        <mxCell id="QQFFvae5NlyF0eOOkwyp-45" value="&amp;lt;&amp;lt;use&amp;gt;&amp;gt;" style="edgeLabel;html=1;align=center;verticalAlign=middle;resizable=0;points=[];" vertex="1" connectable="0" parent="QQFFvae5NlyF0eOOkwyp-44">
          <mxGeometry x="0.1623" y="-1" relative="1" as="geometry">
            <mxPoint x="-19" y="12" as="offset" />
          </mxGeometry>
        </mxCell>
      </root>
    </mxGraphModel>
  </diagram>
</mxfile>
